<svg id="ac14968b-5bd5-486d-9f2c-6960b808a865" data-name="fd10f87b-49f5-4128-be39-de620ca66592" xmlns="http://www.w3.org/2000/svg" width="34" height="34" viewBox="0 0 34 34"><circle cx="17" cy="17" r="17" fill="#ea332d"/><path d="M17,10c2.27,0,2.54,0,3.4.06,2.27.1,3.4,1.13,3.48,3.49,0,.89.06,1.13.06,3.4s0,2.53-.06,3.4a3.2,3.2,0,0,1-2.77,3.55,2.81,2.81,0,0,1-.71,0c-.91,0-1.13.06-3.4.06s-2.54,0-3.4-.06c-2.36-.12-3.4-1.2-3.52-3.52,0-.91-.06-1.13-.06-3.4s0-2.54.06-3.4c.1-2.27,1.13-3.4,3.47-3.48A28.4,28.4,0,0,1,17,10Zm0-1.53H13.49a4.72,4.72,0,0,0-5,4.42v0a4.86,4.86,0,0,0,0,.54v7a4.73,4.73,0,0,0,4.45,5h7.53a4.73,4.73,0,0,0,5-4.45V13.49a4.73,4.73,0,0,0-4.45-5H17Zm0,4.14A4.37,4.37,0,1,0,21.37,17h0A4.36,4.36,0,0,0,17,12.63h0Zm0,7.2A2.83,2.83,0,1,1,19.83,17v0A2.83,2.83,0,0,1,17,19.83Zm4.53-8.39a1,1,0,1,0,1,1h0a1,1,0,0,0-1-1Z" fill="#fff"/></svg>